<svg width="64" height="64" viewBox="0 0 64 64" fill="none" xmlns="http://www.w3.org/2000/svg">
<path d="M61 20H48V3C48 2.73478 47.8946 2.48043 47.7071 2.29289C47.5196 2.10536 47.2652 2 47 2H17C16.7348 2 16.4804 2.10536 16.2929 2.29289C16.1054 2.48043 16 2.73478 16 3V20H3C2.73478 20 2.48043 20.1054 2.29289 20.2929C2.10536 20.4804 2 20.7348 2 21V61C2 61.2652 2.10536 61.5196 2.29289 61.7071C2.48043 61.8946 2.73478 62 3 62H61C61.2652 62 61.5196 61.8946 61.7071 61.7071C61.8946 61.5196 62 61.2652 62 61V21C62 20.7348 61.8946 20.4804 61.7071 20.2929C61.5196 20.1054 61.2652 20 61 20ZM4 22H16V60H4V22ZM35 50V60H29V50H35ZM46 60H37V50H39V48H25V50H27V60H18V4H46V60ZM60 60H48V22H60V60Z" fill="black"/>
<path d="M51 32H57C57.2652 32 57.5196 31.8946 57.7071 31.7071C57.8946 31.5196 58 31.2652 58 31V25C58 24.7348 57.8946 24.4804 57.7071 24.2929C57.5196 24.1054 57.2652 24 57 24H51C50.7348 24 50.4804 24.1054 50.2929 24.2929C50.1054 24.4804 50 24.7348 50 25V31C50 31.2652 50.1054 31.5196 50.2929 31.7071C50.4804 31.8946 50.7348 32 51 32ZM52 26H56V30H52V26Z" fill="black"/>
<path d="M51 42H57C57.2652 42 57.5196 41.8946 57.7071 41.7071C57.8946 41.5196 58 41.2652 58 41V35C58 34.7348 57.8946 34.4804 57.7071 34.2929C57.5196 34.1054 57.2652 34 57 34H51C50.7348 34 50.4804 34.1054 50.2929 34.2929C50.1054 34.4804 50 34.7348 50 35V41C50 41.2652 50.1054 41.5196 50.2929 41.7071C50.4804 41.8946 50.7348 42 51 42ZM52 36H56V40H52V36Z" fill="black"/>
<path d="M51 52H57C57.2652 52 57.5196 51.8946 57.7071 51.7071C57.8946 51.5196 58 51.2652 58 51V45C58 44.7348 57.8946 44.4804 57.7071 44.2929C57.5196 44.1054 57.2652 44 57 44H51C50.7348 44 50.4804 44.1054 50.2929 44.2929C50.1054 44.4804 50 44.7348 50 45V51C50 51.2652 50.1054 51.5196 50.2929 51.7071C50.4804 51.8946 50.7348 52 51 52ZM52 46H56V50H52V46Z" fill="black"/>
<path d="M13 24H7C6.73478 24 6.48043 24.1054 6.29289 24.2929C6.10536 24.4804 6 24.7348 6 25V31C6 31.2652 6.10536 31.5196 6.29289 31.7071C6.48043 31.8946 6.73478 32 7 32H13C13.2652 32 13.5196 31.8946 13.7071 31.7071C13.8946 31.5196 14 31.2652 14 31V25C14 24.7348 13.8946 24.4804 13.7071 24.2929C13.5196 24.1054 13.2652 24 13 24ZM12 30H8V26H12V30Z" fill="black"/>
<path d="M21 28H25C25.2652 28 25.5196 27.8946 25.7071 27.7071C25.8946 27.5196 26 27.2652 26 27V23C26 22.7348 25.8946 22.4804 25.7071 22.2929C25.5196 22.1054 25.2652 22 25 22H21C20.7348 22 20.4804 22.1054 20.2929 22.2929C20.1054 22.4804 20 22.7348 20 23V27C20 27.2652 20.1054 27.5196 20.2929 27.7071C20.4804 27.8946 20.7348 28 21 28ZM22 24H24V26H22V24Z" fill="black"/>
<path d="M34 22H30C29.7348 22 29.4804 22.1054 29.2929 22.2929C29.1054 22.4804 29 22.7348 29 23V27C29 27.2652 29.1054 27.5196 29.2929 27.7071C29.4804 27.8946 29.7348 28 30 28H34C34.2652 28 34.5196 27.8946 34.7071 27.7071C34.8946 27.5196 35 27.2652 35 27V23C35 22.7348 34.8946 22.4804 34.7071 22.2929C34.5196 22.1054 34.2652 22 34 22ZM33 26H31V24H33V26Z" fill="black"/>
<path d="M38 23V27C38 27.2652 38.1054 27.5196 38.2929 27.7071C38.4804 27.8946 38.7348 28 39 28H43C43.2652 28 43.5196 27.8946 43.7071 27.7071C43.8946 27.5196 44 27.2652 44 27V23C44 22.7348 43.8946 22.4804 43.7071 22.2929C43.5196 22.1054 43.2652 22 43 22H39C38.7348 22 38.4804 22.1054 38.2929 22.2929C38.1054 22.4804 38 22.7348 38 23ZM40 24H42V26H40V24Z" fill="black"/>
<path d="M21 36H25C25.2652 36 25.5196 35.8946 25.7071 35.7071C25.8946 35.5196 26 35.2652 26 35V31C26 30.7348 25.8946 30.4804 25.7071 30.2929C25.5196 30.1054 25.2652 30 25 30H21C20.7348 30 20.4804 30.1054 20.2929 30.2929C20.1054 30.4804 20 30.7348 20 31V35C20 35.2652 20.1054 35.5196 20.2929 35.7071C20.4804 35.8946 20.7348 36 21 36ZM22 32H24V34H22V32Z" fill="black"/>
<path d="M34 30H30C29.7348 30 29.4804 30.1054 29.2929 30.2929C29.1054 30.4804 29 30.7348 29 31V35C29 35.2652 29.1054 35.5196 29.2929 35.7071C29.4804 35.8946 29.7348 36 30 36H34C34.2652 36 34.5196 35.8946 34.7071 35.7071C34.8946 35.5196 35 35.2652 35 35V31C35 30.7348 34.8946 30.4804 34.7071 30.2929C34.5196 30.1054 34.2652 30 34 30ZM33 34H31V32H33V34Z" fill="black"/>
<path d="M43 30H39C38.7348 30 38.4804 30.1054 38.2929 30.2929C38.1054 30.4804 38 30.7348 38 31V35C38 35.2652 38.1054 35.5196 38.2929 35.7071C38.4804 35.8946 38.7348 36 39 36H43C43.2652 36 43.5196 35.8946 43.7071 35.7071C43.8946 35.5196 44 35.2652 44 35V31C44 30.7348 43.8946 30.4804 43.7071 30.2929C43.5196 30.1054 43.2652 30 43 30ZM42 34H40V32H42V34Z" fill="black"/>
<path d="M21 44H25C25.2652 44 25.5196 43.8946 25.7071 43.7071C25.8946 43.5196 26 43.2652 26 43V39C26 38.7348 25.8946 38.4804 25.7071 38.2929C25.5196 38.1054 25.2652 38 25 38H21C20.7348 38 20.4804 38.1054 20.2929 38.2929C20.1054 38.4804 20 38.7348 20 39V43C20 43.2652 20.1054 43.5196 20.2929 43.7071C20.4804 43.8946 20.7348 44 21 44ZM22 40H24V42H22V40Z" fill="black"/>
<path d="M34 38H30C29.7348 38 29.4804 38.1054 29.2929 38.2929C29.1054 38.4804 29 38.7348 29 39V43C29 43.2652 29.1054 43.5196 29.2929 43.7071C29.4804 43.8946 29.7348 44 30 44H34C34.2652 44 34.5196 43.8946 34.7071 43.7071C34.8946 43.5196 35 43.2652 35 43V39C35 38.7348 34.8946 38.4804 34.7071 38.2929C34.5196 38.1054 34.2652 38 34 38ZM33 42H31V40H33V42Z" fill="black"/>
<path d="M43 38H39C38.7348 38 38.4804 38.1054 38.2929 38.2929C38.1054 38.4804 38 38.7348 38 39V43C38 43.2652 38.1054 43.5196 38.2929 43.7071C38.4804 43.8946 38.7348 44 39 44H43C43.2652 44 43.5196 43.8946 43.7071 43.7071C43.8946 43.5196 44 43.2652 44 43V39C44 38.7348 43.8946 38.4804 43.7071 38.2929C43.5196 38.1054 43.2652 38 43 38ZM42 42H40V40H42V42Z" fill="black"/>
<path d="M13 34H7C6.73478 34 6.48043 34.1054 6.29289 34.2929C6.10536 34.4804 6 34.7348 6 35V41C6 41.2652 6.10536 41.5196 6.29289 41.7071C6.48043 41.8946 6.73478 42 7 42H13C13.2652 42 13.5196 41.8946 13.7071 41.7071C13.8946 41.5196 14 41.2652 14 41V35C14 34.7348 13.8946 34.4804 13.7071 34.2929C13.5196 34.1054 13.2652 34 13 34ZM12 40H8V36H12V40Z" fill="black"/>
<path d="M13 44H7C6.73478 44 6.48043 44.1054 6.29289 44.2929C6.10536 44.4804 6 44.7348 6 45V51C6 51.2652 6.10536 51.5196 6.29289 51.7071C6.48043 51.8946 6.73478 52 7 52H13C13.2652 52 13.5196 51.8946 13.7071 51.7071C13.8946 51.5196 14 51.2652 14 51V45C14 44.7348 13.8946 44.4804 13.7071 44.2929C13.5196 44.1054 13.2652 44 13 44ZM12 50H8V46H12V50Z" fill="black"/>
<path d="M26 16H29V19C29 19.2652 29.1054 19.5196 29.2929 19.7071C29.4804 19.8946 29.7348 20 30 20H34C34.2652 20 34.5196 19.8946 34.7071 19.7071C34.8946 19.5196 35 19.2652 35 19V16H38C38.2652 16 38.5196 15.8946 38.7071 15.7071C38.8946 15.5196 39 15.2652 39 15V11C39 10.7348 38.8946 10.4804 38.7071 10.2929C38.5196 10.1054 38.2652 10 38 10H35V7C35 6.73478 34.8946 6.48043 34.7071 6.29289C34.5196 6.10536 34.2652 6 34 6H30C29.7348 6 29.4804 6.10536 29.2929 6.29289C29.1054 6.48043 29 6.73478 29 7V10H26C25.7348 10 25.4804 10.1054 25.2929 10.2929C25.1054 10.4804 25 10.7348 25 11V15C25 15.2652 25.1054 15.5196 25.2929 15.7071C25.4804 15.8946 25.7348 16 26 16ZM27 12H30C30.2652 12 30.5196 11.8946 30.7071 11.7071C30.8946 11.5196 31 11.2652 31 11V8H33V11C33 11.2652 33.1054 11.5196 33.2929 11.7071C33.4804 11.8946 33.7348 12 34 12H37V14H34C33.7348 14 33.4804 14.1054 33.2929 14.2929C33.1054 14.4804 33 14.7348 33 15V18H31V15C31 14.7348 30.8946 14.4804 30.7071 14.2929C30.5196 14.1054 30.2652 14 30 14H27V12Z" fill="black"/>
<path d="M44 56H42V58H44V56Z" fill="black"/>
<path d="M44 52H42V54H44V52Z" fill="black"/>
<path d="M44 48H42V50H44V48Z" fill="black"/>
</svg>
