<svg width="48" height="48" viewBox="0 0 48 48" fill="none" xmlns="http://www.w3.org/2000/svg">
<path fill-rule="evenodd" clip-rule="evenodd" d="M44.715 23.711C44.334 24.093 43.715 24.093 43.334 23.711L34.395 14.773C34.331 14.722 34.276 14.667 34.225 14.602L30.395 10.773C30.331 10.722 30.276 10.667 30.225 10.602L24 4.377L4.667 23.711C4.286 24.093 3.667 24.093 3.286 23.711C2.905 23.33 2.905 22.711 3.286 22.33L23.191 2.425C23.222 2.378 23.244 2.324 23.285 2.281C23.482 2.085 23.742 1.994 24 2C24.258 1.994 24.518 2.084 24.715 2.281C24.758 2.323 24.777 2.377 24.811 2.425L30 7.616V4.997C30 4.445 30.447 3.997 31 3.997H35C35.277 3.997 35.527 4.109 35.707 4.29C35.889 4.471 36 4.721 36 4.997V13.616L44.715 22.33C45.096 22.711 45.096 23.33 44.715 23.711ZM34 5.997H32V9.616L34 11.616V5.997ZM10 21.997C10.552 21.997 11 22.445 11 22.997V41.997C11 43.102 11.896 43.997 13 43.997H19V30.997C19 30.444 19.447 29.997 20 29.997H28C28.553 29.997 29 30.444 29 30.997V43.997H35C36.105 43.997 37 43.102 37 41.997V22.997C37 22.445 37.447 21.997 38 21.997C38.553 21.997 39 22.445 39 22.997V41.997C39 44.206 37.209 45.997 35 45.997H13C10.791 45.997 9 44.206 9 41.997V22.997C9 22.444 9.448 21.997 10 21.997ZM27 43.996V31.996H21V43.996H27Z" fill="black"/>
</svg>
