<svg width="48" height="48" viewBox="0 0 48 48" fill="none" xmlns="http://www.w3.org/2000/svg">
<path fill-rule="evenodd" clip-rule="evenodd" d="M41 2C41 1.447 40.553 1 40 1H12C9.238 1 7 3.238 7 6V42C7 44.761 9.238 47 12 47H38C38.414 47 38.77 46.748 38.922 46.389C38.972 46.27 39 46.138 39 46V39H40C40.278 39 40.529 38.885 40.711 38.702C40.889 38.521 41 38.274 41 38V2ZM9 6C9 4.343 10.344 3 12 3H15V37H12C10.869 37 9.838 37.39 9 38.022V6ZM37 39V45H12C10.344 45 9 43.657 9 42C9 40.343 10.344 39 12 39H37ZM39 37H17V3H39V37ZM12 41C11.447 41 11 41.448 11 42C11 42.552 11.447 43 12 43H34C34.553 43 35 42.552 35 42C35 41.448 34.553 41 34 41H12Z" fill="black"/>
</svg>
